<?xml version="1.0" standalone="no"?>
<!DOCTYPE svg PUBLIC "-//W3C//DTD SVG 20010904//EN"
 "http://www.w3.org/TR/2001/REC-SVG-20010904/DTD/svg10.dtd">
<svg version="1.0" xmlns="http://www.w3.org/2000/svg"
 width="1024.000000pt" height="1024.000000pt" viewBox="0 0 1024.000000 1024.000000"
 preserveAspectRatio="xMidYMid meet">
<metadata>
Created by potrace 1.14, written by Peter Selinger 2001-2017
</metadata>
<g transform="translate(0.000000,1024.000000) scale(0.100000,-0.100000)"
fill="#000000" stroke="none">
<path d="M4795 10229 c-1029 -68 -2002 -437 -2810 -1064 -461 -357 -885 -825
-1193 -1312 -428 -678 -681 -1414 -769 -2238 -24 -225 -24 -768 0 -990 106
-979 437 -1821 1021 -2600 209 -278 552 -635 823 -858 809 -662 1749 -1046
2818 -1149 172 -16 723 -16 890 0 295 30 564 76 830 144 1155 293 2191 1008
2890 1993 1444 2035 1212 4815 -550 6580 -740 742 -1668 1232 -2689 1420 -396
73 -865 100 -1261 74z m770 -245 c1560 -142 2944 -1013 3754 -2362 789 -1314
907 -2956 316 -4377 -589 -1414 -1817 -2478 -3290 -2853 -460 -117 -822 -158
-1326 -149 -417 7 -688 41 -1076 137 -1682 415 -3028 1704 -3509 3359 -343
1181 -244 2409 280 3496 241 498 526 902 921 1303 406 414 796 697 1315 956
814 405 1708 573 2615 490z"/>
<path d="M1167 7533 c-4 -3 -7 -268 -7 -588 0 -438 3 -584 12 -593 9 -9 311
-12 1299 -12 l1286 0 7 46 c3 26 6 285 6 576 l0 529 -25 24 -24 25 -1274 0
c-700 0 -1277 -3 -1280 -7z"/>
<path d="M3893 7533 c-18 -3 -23 -11 -23 -36 -1 -18 -2 -273 -4 -567 -3 -523
-1 -563 28 -582 13 -9 2306 -11 2306 -2 0 22 -46 179 -71 242 -82 205 -192
366 -371 538 -256 246 -524 371 -867 404 -93 9 -953 12 -998 3z"/>
<path d="M5430 7479 c175 -95 297 -185 436 -324 215 -214 336 -425 414 -724 6
-24 22 -54 35 -67 l24 -24 526 0 c442 0 525 -2 525 -14 0 -8 -279 -316 -620
-685 -341 -369 -620 -675 -620 -681 0 -6 29 -45 65 -88 196 -232 275 -403 370
-802 21 -85 47 -195 59 -243 l21 -88 350 387 c1323 1465 1859 2064 1877 2098
20 38 21 61 26 595 3 306 2 591 -2 634 l-8 77 -1786 0 -1787 0 95 -51z"/>
<path d="M5602 6240 l-522 -5 41 -55 c108 -143 122 -270 47 -432 -22 -49 -48
-84 -89 -123 -108 -99 -198 -117 -581 -114 -198 2 -260 -1 -272 -11 -14 -11
-16 -77 -16 -566 0 -489 2 -554 16 -568 13 -14 56 -16 313 -16 315 0 364 -6
453 -51 54 -28 130 -99 169 -160 17 -27 34 -49 38 -48 5 0 604 646 764 824
l59 65 -39 48 c-22 26 -43 53 -47 60 -4 7 15 46 48 96 103 154 175 329 217
526 19 87 23 138 23 297 1 180 0 194 -19 212 -11 11 -34 22 -50 24 -17 1 -265
0 -553 -3z"/>
<path d="M2470 4350 l0 -1890 640 0 640 0 0 1890 0 1890 -640 0 -640 0 0
-1890z"/>
<path d="M4953 3678 l-1123 -1213 1083 -3 c595 -1 1092 0 1105 3 34 8 94 67
166 163 265 356 383 762 347 1192 -33 382 -156 698 -380 975 -31 38 -60 75
-66 82 -8 10 -286 -285 -1132 -1199z"/>
<path d="M7584 3693 l-941 -3 -7 -93 c-28 -386 -159 -746 -378 -1039 -38 -50
-67 -92 -65 -94 1 -2 607 -4 1346 -4 1223 -1 1345 0 1360 15 14 14 16 76 16
600 0 547 -1 585 -18 602 -21 21 59 20 -1313 16z"/>
</g>
</svg>
