<svg id="레이어_1" xmlns="http://www.w3.org/2000/svg" viewBox="0 0 598.45 597.79"><g id="레이어_2"><g id="레이어_1-2"><path d="M598.43,298.79c.08,165.12-134,299.28-299.19,299C133,597.41,1.74,463.73,0,302.2-1.75,135.84,132.73,0,299.56,0,464.73,0,598.36,133.71,598.43,298.79ZM299.27,13.71C141.74,13.74,13.72,141.15,13.64,298,13.55,456.21,141,583.93,299,584S584.87,456.6,584.89,299,457.22,13.69,299.27,13.71Z" transform="translate(0.02)" style="fill:#d11416"></path><path d="M310.78,157.91H520.64c.15,1.84.41,3.58.41,5.33,0,22.17.12,44.34-.12,66.51a12.24,12.24,0,0,1-3,7.41q-63.51,70.59-127.27,141a15.34,15.34,0,0,0-1.17,1.49c-3.13-12.57-5.65-25.38-9.61-37.73-4.05-12.63-11.83-23.39-21-33.76L432.07,229c-.14-.44-.28-.87-.41-1.3h-5.09c-17.66,0-35.33-.07-53,0-3.6,0-5.43-.68-6.45-4.74C359.47,192.55,340.36,171.65,310.78,157.91Z" transform="translate(0.02)" style="fill:#d11416"></path><path d="M144.14,233.61h75.29V454H144.14Z" transform="translate(0.02)" style="fill:#d11416"></path><path d="M354.91,312.37c13.27,14.66,21.76,31.09,25.17,49.83,6.1,33.52-1.85,63.43-24.39,89.17a9.35,9.35,0,0,1-6.25,2.92c-41.33.17-82.66.12-124,.11a8.67,8.67,0,0,1-1.65-.56Z" transform="translate(0.02)" style="fill:#d11416"></path><path d="M68.11,157.76H74c46.82,0,93.65.06,140.47-.09,4.27,0,5.81.89,5.75,5.44-.23,19.83-.09,39.67-.11,59.5,0,1.47-.17,2.94-.31,5.13H72.7c-2.81,0-5.17.31-5.13-3.9.17-21.16.1-42.33.13-63.49A20.53,20.53,0,0,1,68.11,157.76Z" transform="translate(0.02)" style="fill:#d11416"></path><path d="M361.33,454c17.45-21,26.14-44.69,26.68-71.94H402.2c37.81,0,75.62.09,113.43-.07,4.49,0,5.56,1.5,5.52,5.71q-.27,30.74,0,61.47c0,3.65-.7,5.35-4.88,5.35q-76-.16-151.91-.06A23.83,23.83,0,0,1,361.33,454Z" transform="translate(0.02)" style="fill:#d11416"></path><path d="M296.93,233.27h34.86c8.83,0,17.66.19,26.48-.1,3.86-.13,5.15,1,5.48,4.91,1.83,22.12-3.22,42.28-16.27,60.34-.38.52-.69,1.1-1.15,1.86l5.58,6.88L303.4,359.52c-6.22-13.32-17-16.48-30-15.73-7.63.44-15.32-.05-23,.14-3.33.08-4.67-.77-4.64-4.43q.26-29.73,0-59.47c0-3.31,1.05-4.32,4.29-4.26,9.33.17,18.66,0,28,.07,10.94.1,19.64-3.89,24.38-14.1,4.55-9.82,2.37-18.81-4.77-26.74A9.75,9.75,0,0,1,296.93,233.27Z" transform="translate(0.02)" style="fill:#d11416"></path><path d="M362.36,227.75h-9.05c-40.64,0-81.28-.07-121.92.08-4.25,0-5.75-.86-5.69-5.45.26-19.82.11-39.64.12-59.46,0-1.47.13-2.94.22-4.86,1.78-.12,3.38-.3,5-.3h46.47c28.3,0,50.61,12.12,68.15,33.71A80.27,80.27,0,0,1,362.36,227.75Z" transform="translate(0.02)" style="fill:#d11416"></path></g></g></svg>